<svg id="Capa_1" data-name="Capa 1" xmlns="http://www.w3.org/2000/svg" viewBox="0 0 478.83 414.86"><defs><style>.cls-1{fill:#fff;}</style></defs><title>ico</title><path class="cls-1" d="M309.3,44.73" transform="translate(-20.17 -55.94)"/><path class="cls-1" d="M239.63,346.34H359.34c27.67,0,50.75-19.64,57.59-46.18L359.34,180.4l-39.9,83L219.68,55.94,20.17,470.8H139.88V450.06C139.88,392.77,184.55,346.34,239.63,346.34Z" transform="translate(-20.17 -55.94)"/><path class="cls-1" d="M439,346c-18.18,25.27-46.94,41.84-79.63,41.84H239.63c-33,0-59.85,27.85-59.85,62.23V470.8H499Z" transform="translate(-20.17 -55.94)"/><path class="cls-1" d="M481,151.07c-11.44-25.1-30.16-46.88-39-73.4-1.56-4.26-9.36-6.15-11.45-1.42-12.48,26.52-31.2,50.67-40,78.61-1.56,5.21,6.24,10.42,10.4,5.68,6.24-7.1,13.52-12.78,20.8-19.41-1,40.72,0,81.44-7.8,121.69-4.16,21.78-9.88,46.41-27,63-20.8,19.89-46.8,1.89-58.24-16.57-9.88-16.1-27-85.71-61.36-61.56-20.28,14.2-25.48,33.62-31.73,54.93a63.78,63.78,0,0,1-7.28,17c-12,20.36-27.56-12.78-28.08-20.83-1-16.1,4.16-32.68,8.32-48.3,1.56-4.74-6.24-6.63-8.32-1.9-9.36,22.26-22.36,60.14,0,79.55,19.76,16.58,36.4,5.69,44.21-13.73,5.2-12.78,25-83.81,47.84-50.66,15.08,21.78,19.24,47.82,37.44,68.18,13,14.21,36.4,17.52,54.6,10.42,21.84-9,31.2-35.51,36.92-54.45,14-47.36,14-98.5,12.49-147.27,12.48,7.58,26.52,14.68,40.56,19.42,5.72,1.42,8.84-5.21,6.76-9Zm-18.2-9.47c-10.92-6.16-21.32-13.26-33.29-14.68a5.36,5.36,0,0,0-5.72,2.84M413.37,134" transform="translate(-20.17 -55.94)"/></svg>