<?xml version="1.0" encoding="utf-8"?>
<!-- Generator: Adobe Illustrator 24.0.2, SVG Export Plug-In . SVG Version: 6.00 Build 0)  -->
<svg version="1.1" id="Capa_1" xmlns="http://www.w3.org/2000/svg" xmlns:xlink="http://www.w3.org/1999/xlink" x="0px" y="0px"
	 viewBox="0 0 512 512" style="enable-background:new 0 0 512 512;" xml:space="preserve">
<g>
	<path d="M309.3,44.7"/>
</g>
<g>
	<path d="M239.6,346.3h119.7c27.7,0,50.8-19.6,57.6-46.2l-57.6-119.8l-39.9,83L219.7,55.9L20.2,470.8h119.7v-20.7
		C139.9,392.8,184.6,346.3,239.6,346.3z"/>
	<path d="M439,346c-18.2,25.3-46.9,41.8-79.6,41.8H239.6c-33,0-59.9,27.9-59.9,62.2v20.7H499L439,346z"/>
	<g>
		<path d="M481,151.1c-11.4-25.1-30.2-46.9-39-73.4c-1.6-4.3-9.4-6.2-11.4-1.4c-12.5,26.5-31.2,50.7-40,78.6
			c-1.6,5.2,6.2,10.4,10.4,5.7c6.2-7.1,13.5-12.8,20.8-19.4c-1,40.7,0,81.4-7.8,121.7c-4.2,21.8-9.9,46.4-27,63
			c-20.8,19.9-46.8,1.9-58.2-16.6c-9.9-16.1-27-85.7-61.4-61.6c-20.3,14.2-25.5,33.6-31.7,54.9c-1.6,6.2-4.2,11.8-7.3,17
			c-12,20.4-27.6-12.8-28.1-20.8c-1-16.1,4.2-32.7,8.3-48.3c1.6-4.7-6.2-6.6-8.3-1.9c-9.4,22.3-22.4,60.1,0,79.6
			c19.8,16.6,36.4,5.7,44.2-13.7c5.2-12.8,25-83.8,47.8-50.7c15.1,21.8,19.2,47.8,37.4,68.2c13,14.2,36.4,17.5,54.6,10.4
			c21.8-9,31.2-35.5,36.9-54.5c14-47.4,14-98.5,12.5-147.3c12.5,7.6,26.5,14.7,40.6,19.4C479.9,161.5,483.1,154.9,481,151.1
			L481,151.1z M462.8,141.6c-10.9-6.2-21.3-13.3-33.3-14.7c-2.6-0.5-4.7,0.9-5.7,2.8 M413.4,134"/>
	</g>
</g>
</svg>
